<?xml version="1.0"?>
<svg xmlns="http://www.w3.org/2000/svg" xmlns:xlink="http://www.w3.org/1999/xlink" xmlns:svgjs="http://svgjs.com/svgjs" version="1.1" width="512" height="512" x="0" y="0" viewBox="0 0 512 512" style="enable-background:new 0 0 512 512" xml:space="preserve" class=""><g><link type="text/css" id="dark-mode" rel="stylesheet" href=""/><style type="text/css" id="dark-mode-custom-style"/><g xmlns="http://www.w3.org/2000/svg"><path d="m134.51 37.5c0 4.142 3.358 7.5 7.5 7.5s7.5-3.358 7.5-7.5-3.358-7.5-7.5-7.5-7.5 3.358-7.5 7.5zm60 0c0 4.142 3.358 7.5 7.5 7.5s7.5-3.358 7.5-7.5-3.358-7.5-7.5-7.5-7.5 3.358-7.5 7.5zm279.99 5.54h-67.01v-23.54c0-10.752-8.748-19.5-19.5-19.5h-68.198c-4.142 0-7.5 3.358-7.5 7.5s3.358 7.5 7.5 7.5h68.198c2.481 0 4.5 2.019 4.5 4.5v40.5h-272.98v-40.5c0-2.481 2.019-4.5 4.5-4.5h160.782c4.142 0 7.5-3.358 7.5-7.5s-3.358-7.5-7.5-7.5h-160.782c-10.752 0-19.5 8.748-19.5 19.5v23.54h-67.01c-20.678 0-37.5 16.822-37.5 37.5v282.42c0 20.678 16.822 37.5 37.5 37.5h175.383l-5.712 42.455h-8.357c-6.939 0-13.081 4.67-14.936 11.357l-10.563 38.085c-1.306 4.707-.358 9.637 2.598 13.524 2.957 3.888 7.454 6.118 12.338 6.118h135.497c4.884 0 9.381-2.23 12.338-6.118s3.904-8.817 2.598-13.524l-10.563-38.085c-1.855-6.687-7.997-11.357-14.936-11.357h-8.357l-5.712-42.455h175.384c20.678 0 37.5-16.822 37.5-37.5v-282.42c0-20.678-16.822-37.5-37.5-37.5zm-67.01 45h59.51v252.42h-59.51zm-143.99-13.04h128.99v125.231h-15.524v-14.776c0-17.846-10.195-33.346-25.061-41.011 6.171-6.144 9.997-14.641 9.997-24.016 0-18.696-15.21-33.906-33.906-33.906s-33.906 15.21-33.906 33.906c0 9.375 3.826 17.872 9.997 24.016-14.866 7.665-25.061 23.165-25.061 41.011v14.776h-15.526zm61.645 79.334h5.7c17.16 0 31.12 13.96 31.12 31.121v14.776h-67.941v-14.776c0-17.16 13.961-31.121 31.121-31.121zm-16.056-33.906c0-10.425 8.481-18.906 18.906-18.906s18.906 8.481 18.906 18.906-8.481 18.906-18.906 18.906-18.906-8.481-18.906-18.906zm-45.589 94.803h128.99v125.229h-15.524v-14.774c0-17.846-10.195-33.346-25.061-41.011 6.171-6.144 9.997-14.641 9.997-24.016 0-18.696-15.21-33.906-33.906-33.906s-33.906 15.21-33.906 33.906c0 9.375 3.826 17.872 9.997 24.016-14.866 7.665-25.061 23.165-25.061 41.011v14.774h-15.526zm61.645 79.334h5.7c17.16 0 31.12 13.96 31.12 31.121v14.774h-67.941v-14.774c0-17.16 13.961-31.121 31.121-31.121zm-16.056-33.906c0-10.425 8.481-18.906 18.906-18.906s18.906 8.481 18.906 18.906-8.481 18.906-18.906 18.906-18.906-8.481-18.906-18.906zm-189.579-185.659h128.99v125.231h-15.524v-14.776c0-17.846-10.195-33.346-25.061-41.011 6.171-6.144 9.997-14.641 9.997-24.016 0-18.696-15.21-33.906-33.906-33.906s-33.906 15.21-33.906 33.906c0 9.375 3.826 17.872 9.997 24.016-14.866 7.665-25.061 23.165-25.061 41.011v14.776h-15.526zm61.645 79.334h5.7c17.16 0 31.121 13.96 31.121 31.121v14.776h-67.941v-14.776c0-17.16 13.96-31.121 31.12-31.121zm-16.056-33.906c0-10.425 8.481-18.906 18.906-18.906s18.906 8.481 18.906 18.906-8.481 18.906-18.906 18.906-18.906-8.481-18.906-18.906zm-45.589 94.803h128.99v125.229h-15.524v-14.774c0-17.846-10.195-33.346-25.061-41.011 6.171-6.144 9.997-14.641 9.997-24.016 0-18.696-15.21-33.906-33.906-33.906s-33.906 15.21-33.906 33.906c0 9.375 3.826 17.872 9.997 24.016-14.866 7.665-25.061 23.165-25.061 41.011v14.774h-15.526zm61.645 79.334h5.7c17.16 0 31.121 13.96 31.121 31.121v14.774h-67.941v-14.774c0-17.16 13.96-31.121 31.12-31.121zm-16.056-33.906c0-10.425 8.481-18.906 18.906-18.906s18.906 8.481 18.906 18.906-8.481 18.906-18.906 18.906-18.906-8.481-18.906-18.906zm148.087 197.256c.224 0 .422.15.482.366l10.563 38.085c.095.241-.224.662-.482.634h-135.498c-.258.028-.579-.389-.482-.634l10.563-38.085c.06-.216.258-.367.482-.367h114.372zm-90.88-15 5.712-42.455h55.963l5.712 42.455zm274.694-79.955c0 12.407-10.093 22.5-22.5 22.5h-437c-12.407 0-22.5-10.093-22.5-22.5v-282.42c0-12.407 10.093-22.5 22.5-22.5h67.01v15h-63.01c-6.341 0-11.5 5.159-11.5 11.5v186.109c0 4.142 3.358 7.5 7.5 7.5s7.5-3.358 7.5-7.5v-182.609h59.51v252.42h-59.51v-34.811c0-4.142-3.358-7.5-7.5-7.5s-7.5 3.358-7.5 7.5v38.311c0 6.341 5.159 11.5 11.5 11.5h429c6.341 0 11.5-5.159 11.5-11.5v-259.42c0-6.341-5.159-11.5-11.5-11.5h-63.01v-15h67.01c12.407 0 22.5 10.093 22.5 22.5zm-332.49-325.46c0 4.142 3.358 7.5 7.5 7.5s7.5-3.358 7.5-7.5-3.358-7.5-7.5-7.5-7.5 3.358-7.5 7.5z" fill="#a1eacc" data-original="#000000" style="" class=""/></g></g></svg>
