<?xml version="1.0"?>
<svg xmlns="http://www.w3.org/2000/svg" xmlns:xlink="http://www.w3.org/1999/xlink" xmlns:svgjs="http://svgjs.com/svgjs" version="1.1" width="512" height="512" x="0" y="0" viewBox="0 0 512 512" style="enable-background:new 0 0 512 512" xml:space="preserve" class=""><g><link type="text/css" id="dark-mode" rel="stylesheet" href=""/><style type="text/css" id="dark-mode-custom-style"/><g xmlns="http://www.w3.org/2000/svg"><path d="m504.5 387.374c4.142 0 7.5-3.358 7.5-7.5v-100.374c0-20.678-16.822-37.5-37.5-37.5h-223.094c18.918-18.101 29.497-42.761 29.484-68.95v-7.046h3.299c15.574 0 28.245-12.671 28.245-28.245 0-15.575-12.671-28.246-28.245-28.246h-3.296v-53.644c0-30.806-25.063-55.869-55.869-55.869h-79.048c-30.806 0-55.869 25.063-55.869 55.869v53.644h-3.296c-15.574 0-28.245 12.671-28.245 28.246 0 15.574 12.671 28.245 28.245 28.245h3.299v7.046c0 34.698 18.621 65.125 46.39 81.821v14.549c0 5.826-4.127 10.958-9.82 12.205l-73.67 16.19c-14.974 3.292-28.51 11.685-38.115 23.632s-14.895 26.97-14.895 42.303v140.75c0 4.142 3.358 7.5 7.5 7.5s7.5-3.358 7.5-7.5v-37.5h63.056v37.5c0 4.142 3.358 7.5 7.5 7.5s7.5-3.358 7.5-7.5v-61.873c0-4.142-3.358-7.5-7.5-7.5s-7.5 3.358-7.5 7.5v9.373h-63.056v-88.25c0-24.464 17.34-46.033 41.23-51.285l65.991-14.503c15.577 18.136 37.775 28.598 61.779 29.017v117.521c0 9.402 3.486 17.999 9.222 24.588-5.485 2.958-9.222 8.756-9.222 15.412v10c0 9.649 7.851 17.5 17.5 17.5h293c9.649 0 17.5-7.851 17.5-17.5v-10c0-6.656-3.737-12.454-9.222-15.412 5.736-6.589 9.222-15.186 9.222-24.588v-29.626c0-4.142-3.358-7.5-7.5-7.5s-7.5 3.358-7.5 7.5v29.626c0 12.407-10.093 22.5-22.5 22.5h-253c-12.407 0-22.5-10.093-22.5-22.5v-165c0-12.407 10.093-22.5 22.5-22.5h253c12.407 0 22.5 10.093 22.5 22.5v100.374c0 4.142 3.358 7.5 7.5 7.5zm-223.607-262.861h3.296c7.303 0 13.245 5.942 13.245 13.246 0 7.303-5.942 13.245-13.245 13.245h-3.296zm-190.786 26.491h-3.296c-7.303 0-13.245-5.942-13.245-13.245 0-7.304 5.942-13.246 13.245-13.246h3.296zm93.893 128.496v32.464c-17.361-.371-33.557-7.139-45.875-18.994 8.072-4.883 13.375-13.766 13.375-23.55v-7.239c10.567 4.045 22.028 6.269 34 6.269.055 0 .109-.003.164-.003-1.08 3.496-1.664 7.207-1.664 11.053zm17.5 202.5h293c1.378 0 2.5 1.122 2.5 2.5v10c0 1.378-1.122 2.5-2.5 2.5h-293c-1.378 0-2.5-1.122-2.5-2.5v-10c0-1.378 1.122-2.5 2.5-2.5zm25.344-240h-5.344c-10.275 0-19.595 4.156-26.375 10.873-3.19.378-6.416.577-9.625.577-44.327 0-80.39-36.067-80.39-80.4v-48.779c11.051-.564 22.001-2.059 32.647-4.46 4.041-.912 6.577-4.926 5.666-8.967-.911-4.04-4.925-6.575-8.967-5.666-9.568 2.158-19.41 3.508-29.349 4.057v-53.366c0-22.535 18.334-40.869 40.869-40.869h79.048c22.535 0 40.869 18.334 40.869 40.869v50.523c-7.231-3.06-14.091-7.115-20.185-12.018-8.134-6.539-14.927-14.46-20.192-23.55-1.731-2.981-4.671-5.013-8.067-5.573-3.392-.559-6.82.417-9.402 2.671-9.332 8.12-19.488 15.181-30.187 20.987-3.789 2.058-7.712 3.995-11.662 5.755-3.783 1.687-5.482 6.121-3.796 9.904 1.687 3.782 6.121 5.482 9.904 3.796 4.304-1.919 8.582-4.03 12.71-6.273 10.452-5.672 20.424-12.439 29.702-20.154 5.85 9.198 13.099 17.301 21.589 24.125 8.789 7.072 18.923 12.689 29.582 16.427v50.559c0 21.476-8.361 41.665-23.543 56.847-4.671 4.674-9.882 8.733-15.502 12.105zm1.063-106.938c-4.142 0-7.5 3.358-7.5 7.5v16.963c0 4.142 3.358 7.5 7.5 7.5s7.5-3.358 7.5-7.5v-16.963c0-4.143-3.358-7.5-7.5-7.5zm80.093 226.938c0 22.056 17.944 40 40 40s40-17.944 40-40-17.944-40-40-40-40 17.944-40 40zm65 0c0 13.785-11.215 25-25 25s-25-11.215-25-25 11.215-25 25-25 25 11.215 25 25zm-229.907-226.938c-4.142 0-7.5 3.358-7.5 7.5v16.963c0 4.142 3.358 7.5 7.5 7.5s7.5-3.358 7.5-7.5v-16.963c0-4.143-3.358-7.5-7.5-7.5zm55.763 76.175c-2.913 1.598-7.63 3.495-13.646 3.426-5.746-.061-10.277-1.897-13.066-3.426-3.633-1.994-8.191-.663-10.182 2.969-1.992 3.632-.663 8.19 2.969 10.182 4.292 2.354 11.268 5.181 20.122 5.274 8.931.094 16.605-2.855 21.016-5.274 3.632-1.992 4.961-6.55 2.969-10.182s-6.55-4.962-10.182-2.969z" fill="#a1eacc" data-original="#000000" style=""/></g></g></svg>
